Patient4_TMGait_0pt5_01_left_08_EMG.mot
version=1
nRows=16
nColumns=33
inDegrees=no
endheader
time	1LAddLong	2LGlutMax	3LGlutMed	4LIliopsoas	5LSemiMemb	6LBicFemLong	7LRecFem	8LVastMed	9LVastLat	10LGasMed	11LTibAnt	12lTibPost	13LPeroneusLong	14LSol	15LExtDigLong	16LFlexDigLong	17RAddLong	18RGlutMax	19RGlutMed	20RIliopsoas	21RSemiMemb	22RBicFemLong	23RRecFem	24RVastMed	25RVastLat	26RGasMed	27RTibAnt	28RTibPost	29RPeroneusLong	30RSol	31RExtDigLong	32RFlexDigLong
10.77	0.011902	0.12985	-0.040588	0.011292	0.011292	-0.00885	0.037384	-0.003052	0.094757	0.008392	0.060577	-0.010376	-0.10437	-0.009003	0.022736	-0.20935	0.000916	0.073547	0.45975	-0.097046	0.015259	-0.19501	-0.025635	-0.12711	-0.65292	-0.015869	-0.35217	-0.015259	0.083313	0.44693	0.000916	-0.010223
10.771	0.005035	0.10742	-0.07019	0.012207	0.008392	-0.033417	0.04837	-0.001831	0.096741	-0.023651	-0.032196	-0.026245	-0.066376	-0.026245	-0.038147	-0.11978	0.000305	0.001678	0.11398	-0.094604	0.034485	-0.18234	-0.097198	-0.073853	-0.34409	0.022125	0.13626	-0.023956	0.13901	0.58166	-0.000763	-0.016785
10.772	-0.007782	0.1297	-0.073395	0.001068	0.005951	-0.044708	0.040894	0.002136	0.099182	-0.036926	-0.007019	-0.014343	-0.013885	-0.04425	-0.019684	0.49194	0.009766	0.012817	-0.12497	0.052948	0.011597	-0.037994	-0.18951	-0.0354	-0.21408	0.019379	0.42938	-0.042267	0.23499	0.26993	-0.00061	-0.014801
10.773	-0.009918	0.14587	-0.063019	0.009613	0.005188	-0.043793	0.030518	0.007477	0.089722	-0.029297	0.03067	0.001221	0.036316	-0.075989	0.076599	0.082092	0.036774	0.13901	0.13534	0.073242	-0.17502	0.033264	0.076599	0.069885	-0.17425	-0.070343	0.16296	-0.056458	0.29007	-0.19424	0.000153	-0.015869
10.774	0.004883	0.16281	-0.012054	0.015564	0.003052	-0.022736	0.045776	0.00351	0.075226	-0.017548	-0.016327	0.000916	0.11292	-0.062103	0.13794	-0.15579	0.027618	0.15274	0.52902	-0.032196	-0.37613	-0.001373	0.21484	-0.002899	-0.2179	-0.050812	0.2243	0.078735	0.12848	-0.52292	-0.000458	-0.009155
10.775	-0.015106	0.13138	0.038147	0.005951	0.014191	-0.037842	0.039215	0.004272	0.078735	0.018463	-0.006561	-0.001373	0.078125	-0.10223	0.1564	0	0.029449	0.098724	0.54916	-0.079651	-0.059357	-0.17883	0.30884	-0.010986	-0.15823	-0.001373	0.1207	0.028992	0.041046	-0.45212	0.000153	-0.01236
10.776	-0.008698	0.081635	0.027924	0.013123	0.013885	-0.031738	0.039368	0.001984	0.079346	0.005188	0.004425	-0.004272	0.042419	-0.023956	0.19043	0.30151	-0.006561	0.10071	0.42236	-0.057373	0.068359	-0.19226	0.27023	0.061646	-0.045319	0.013275	-0.63263	-0.008392	0.30685	-0.15289	-0.002441	-0.003052
10.777	0.011597	0.11734	0.024414	-0.01297	0.023956	-0.014191	0.058136	0.007019	0.080414	-0.037842	0.001984	-0.005951	0.039368	-0.054932	0.15106	-0.015869	-0.01358	0.15335	0.015106	-0.017853	-0.063019	-0.15121	0.30884	0.045776	0.062256	0.016479	-0.39795	0.009003	0.3421	-0.071411	0.001221	-0.001373
10.778	0.006561	0.13473	-0.040894	0.006714	0.014343	-0.019073	0.039978	-0.005493	0.075531	-0.029907	0.007019	0.011597	0.013123	-0.22186	0.096283	0.019531	0.01236	0.14664	-0.094147	0.046539	-0.049438	-0.056305	0.17929	-0.007629	0.1236	0.014954	0.2034	-0.00824	0.045776	-0.097046	0.000458	-0.003052
10.779	-0.008087	0.11765	-0.021057	0.010223	0.00473	-0.027618	0.030823	0.001373	0.097504	-0.046082	0.011292	0.005951	0.016632	-0.2446	0.046997	-0.001068	0.017853	0.19821	-0.031281	0.09613	-0.093231	0.10193	0.040741	-0.032043	0.079498	0.008087	0.48996	-0.018005	-0.53375	-0.00824	-0.000916	-0.007172
10.78	-0.007935	0.12344	-0.015106	0.011444	0.005188	-0.045319	0.033875	0.000305	0.085297	-0.050659	0.053558	-0.001678	0.011292	-0.16495	0.03067	-0.003967	-0.00412	0.12695	-0.15961	0.16357	-0.14328	0.13855	0.15411	0.032043	0.03006	0.002594	0.345	0.062561	-0.87555	-0.075836	0.002594	-0.011597
10.781	0.005035	0.12558	-0.025177	-0.009003	-0.00061	-0.022278	0.037384	-0.000458	0.078583	-0.020142	0.015564	0.010529	-0.004272	-0.082855	0.027924	-0.007629	-0.004578	0.12024	0.38376	0.048981	-0.20752	0.21316	0.2803	-0.037689	-0.049133	0.003967	0.036011	-0.005646	-0.34668	-0.22614	-0.000305	-0.013428
10.782	0.011139	0.11871	-0.040741	-0.00412	0.019836	-0.02533	0.034027	0.002289	0.076141	0.023499	0.028687	0.11719	-0.024261	-0.064087	-0.011444	-0.003815	-0.007935	0.046997	0.3093	-0.008087	-0.022125	0.30228	0.22278	-0.015717	-0.030518	0.005035	0.056458	-0.02182	-0.014343	-0.25955	0.001526	-0.013733
10.783	0.00473	0.12085	-0.050354	-0.00061	0.017548	-0.01297	0.047913	0.001068	0.077972	0.041656	0.021515	0.064392	-0.027008	-0.079346	-0.04303	-0.006104	0.009003	-0.00473	-0.12375	0.013123	-0.01297	0.22568	0.25345	-0.037842	-0.009308	0.013275	-0.39764	-0.007935	0.26199	-0.16754	-0.00061	-0.00885
10.784	-0.003204	0.1265	-0.008545	-0.008392	0.030365	-0.006866	0.037537	-0.000458	0.089569	0.024261	0.027161	-0.046387	-0.004883	-0.15976	-0.026398	-0.006561	0.029449	-0.044556	-0.53467	0.03952	0.005493	0.093079	0.35767	-0.061951	-0.023041	-0.003052	0.022278	0.003967	0.3862	-0.12558	0.000458	-0.006866
10.785	0.014496	0.11444	0.01709	0.006256	0.021667	-0.018463	0.030823	-0.005493	0.080872	-0.010986	0.032654	-0.051727	0.002747	-0.027008	0.014648	0.010071	0.035706	-0.003204	-0.013275	-0.015259	0.046997	-0.048523	0.46707	0.02243	0.027618	-0.007324	0.73425	0.000153	0.044403	-0.28305	0	-0.011292
